<?xml version="1.0" standalone="no"?>
<!DOCTYPE svg PUBLIC "-//W3C//DTD SVG 20010904//EN"
 "http://www.w3.org/TR/2001/REC-SVG-20010904/DTD/svg10.dtd">
<svg version="1.0" xmlns="http://www.w3.org/2000/svg"
 width="370.000000pt" height="370.000000pt" viewBox="0 0 370.000000 370.000000"
 preserveAspectRatio="xMidYMid meet">
<metadata>
Created by potrace 1.14, written by Peter Selinger 2001-2017
</metadata>
<g transform="translate(0.000000,370.000000) scale(0.100000,-0.100000)"
fill="#000000" stroke="none">
<path d="M0 1850 l0 -1850 1850 0 1850 0 0 1850 0 1850 -1850 0 -1850 0 0
-1850z m1700 867 c0 -2 -18 -19 -41 -37 -28 -22 -43 -29 -48 -21 -11 17 -98
-79 -124 -137 -31 -67 -30 -205 2 -281 30 -74 60 -116 74 -102 7 7 16 2 28
-18 23 -37 108 -78 184 -86 51 -6 57 -5 47 8 -11 12 -7 16 25 21 67 11 169 66
123 66 -19 0 -10 16 20 34 26 15 80 83 80 101 0 3 -9 5 -19 5 -17 0 -18 4 -9
34 10 33 4 106 -9 106 -4 0 -17 -10 -30 -22 l-23 -21 0 25 c0 30 -32 74 -59
81 -30 7 -72 -35 -69 -70 1 -15 -4 -38 -10 -50 -7 -12 -12 -38 -12 -58 0 -84
-39 -159 -72 -139 -7 4 -5 10 6 16 9 5 13 14 10 20 -4 6 -1 14 7 18 10 7 10
11 0 24 -10 12 -11 16 -1 16 7 0 10 8 7 20 -3 11 -1 20 4 20 11 0 12 57 0 64
-4 3 -27 -9 -50 -26 -28 -22 -43 -42 -47 -65 -3 -18 -10 -33 -15 -33 -5 0 -9
-9 -9 -20 0 -11 -7 -20 -15 -20 -8 0 -15 -7 -15 -15 0 -19 -24 -19 -40 0 -15
18 -4 60 36 137 8 14 14 49 14 77 0 49 -1 51 -37 66 -21 9 -45 14 -55 12 -35
-9 -5 24 44 49 55 28 58 47 10 52 -18 2 -32 7 -32 12 0 17 84 59 130 65 74 11
78 14 50 35 l-25 20 51 0 c28 0 72 -6 97 -14 l47 -14 -6 24 c-5 21 -3 24 22
24 44 -1 105 -33 142 -74 17 -20 32 -41 32 -46 0 -21 20 -8 26 17 l7 26 18
-22 c27 -33 42 -99 35 -153 -7 -52 -3 -57 27 -30 19 17 19 16 15 -78 -3 -72
-10 -105 -26 -137 -22 -43 -22 -43 -2 -43 28 0 26 -29 -6 -75 -34 -50 -58 -70
-126 -102 -52 -24 -56 -29 -43 -43 8 -9 15 -19 15 -22 0 -3 -34 -11 -75 -18
-97 -17 -218 -8 -280 19 -56 25 -69 26 -61 6 12 -32 -21 -12 -75 44 l-56 59
-15 -26 -16 -26 -16 39 c-19 45 -46 190 -46 247 0 24 -4 37 -10 33 -14 -9 -12
19 5 92 8 34 12 69 9 77 -3 9 8 36 25 61 34 50 38 60 19 49 -7 -4 -5 1 4 12 9
10 39 33 67 49 28 17 49 35 47 42 -3 6 -2 14 1 17 6 6 113 9 113 3z m-1210
-1021 c48 -25 88 -64 113 -111 19 -34 22 -56 22 -150 0 -102 -2 -113 -27 -157
-34 -57 -86 -101 -137 -117 -21 -6 -88 -11 -150 -11 l-111 0 0 246 0 246 124
-4 c143 -3 165 -13 204 -88 17 -34 22 -61 22 -115 -1 -146 -68 -213 -212 -215
l-58 0 0 175 c0 149 2 175 15 175 13 0 15 -24 15 -155 l0 -155 55 0 c31 0 69
7 84 15 41 21 71 88 71 158 0 67 -17 112 -54 147 -25 23 -37 25 -132 28 l-104
4 0 -216 0 -216 99 0 c89 0 104 3 152 28 78 40 111 98 117 201 7 123 -32 212
-111 253 -35 18 -63 22 -164 26 -101 4 -123 7 -123 19 0 24 241 14 290 -11z
m583 -9 c79 -47 108 -145 68 -232 -21 -48 -45 -69 -67 -61 -13 5 -11 12 14 40
68 77 48 186 -41 233 -22 11 -66 18 -144 21 l-113 5 0 -257 0 -256 25 0 25 0
0 135 c0 124 1 135 18 135 12 0 53 -47 117 -135 88 -120 102 -135 128 -135
l29 0 -24 33 c-164 217 -171 229 -157 238 8 5 24 9 36 9 27 0 63 44 63 77 0
13 -11 35 -25 48 -21 22 -33 25 -90 25 l-65 0 0 -55 c0 -42 -3 -55 -15 -55
-12 0 -15 14 -15 70 l0 70 80 0 c43 0 91 -5 105 -12 74 -33 70 -160 -6 -192
l-29 -12 63 -85 c34 -46 80 -108 101 -136 l38 -53 -69 0 -68 0 -90 125 -90
125 -3 -125 -3 -125 -54 0 -55 0 0 286 0 287 134 -5 c122 -4 137 -7 179 -31z
m584 -252 c57 -154 103 -281 103 -282 0 -2 -26 -3 -58 -3 l-57 0 -24 70 -24
70 -139 0 c-76 0 -138 -1 -138 -2 0 -2 -9 -27 -20 -55 l-20 -53 26 0 c19 0 28
7 35 30 6 17 17 30 25 30 18 0 18 -12 0 -55 -15 -34 -17 -35 -70 -35 -31 0
-56 1 -56 3 0 2 13 39 29 83 l29 79 160 3 160 2 22 -65 c22 -65 35 -80 63 -73
10 2 -9 65 -77 253 l-91 250 -35 0 -34 0 -52 -140 -51 -140 90 -3 c49 -1 92
-1 94 2 6 6 -40 136 -47 136 -4 0 -14 -22 -24 -50 -10 -28 -24 -50 -32 -50 -8
0 -14 3 -14 6 0 14 65 184 70 184 3 0 26 -57 51 -128 l46 -127 -135 -3 c-74
-1 -136 -1 -138 1 -4 4 109 318 121 337 4 6 29 10 58 8 l52 -3 102 -280z m502
275 c18 -5 44 -16 57 -25 24 -15 24 -16 8 -48 -29 -57 -32 -58 -75 -37 -21 11
-57 20 -80 20 -35 0 -48 -6 -79 -38 -47 -46 -65 -106 -56 -182 12 -98 61 -152
139 -152 67 0 87 9 87 38 0 15 6 24 15 24 10 0 15 -10 15 -34 0 -31 -4 -36
-36 -46 -20 -7 -63 -10 -95 -8 -48 3 -65 10 -89 33 -65 62 -86 207 -42 291 44
87 117 119 203 92 34 -11 50 -13 58 -5 17 17 13 25 -20 42 -48 26 -148 22
-199 -6 -139 -78 -161 -337 -38 -445 20 -18 53 -37 74 -44 47 -16 142 -8 191
17 38 18 38 18 41 86 l3 67 -91 0 -90 0 0 55 0 55 105 0 c87 0 105 -3 105 -15
0 -12 -17 -15 -90 -15 -89 0 -90 0 -90 -25 0 -25 1 -25 90 -25 l90 0 0 -91 0
-90 -56 -26 c-114 -52 -236 -38 -306 35 -45 47 -63 82 -78 155 -29 143 35 291
150 344 31 14 134 16 179 3z m473 -27 c3 -32 7 -38 34 -45 107 -27 158 -212
91 -332 -46 -83 -145 -112 -218 -63 -102 67 -111 278 -15 366 32 30 34 11 2
-32 -82 -112 -50 -291 60 -327 29 -10 43 -9 79 5 59 22 95 91 95 179 -1 104
-57 186 -127 186 -19 0 -23 5 -23 33 0 44 -4 47 -48 35 -149 -40 -213 -275
-115 -425 43 -67 85 -88 173 -88 67 0 82 4 118 28 87 57 127 215 87 337 -18
56 -91 140 -120 140 -8 0 -15 7 -15 15 0 20 8 19 54 -8 112 -64 157 -253 95
-398 -71 -163 -287 -197 -398 -62 -68 83 -86 242 -39 344 41 89 119 148 195
149 29 0 32 -3 35 -37z m553 -243 l159 -270 38 0 38 0 0 260 0 260 -25 0 -25
0 -2 -222 -3 -222 -132 225 c-73 125 -133 229 -133 233 0 27 33 -19 127 -179
l108 -185 3 185 2 185 55 0 55 0 0 -280 0 -281 -61 3 -61 3 -144 244 c-79 135
-148 249 -154 255 -7 7 -10 -71 -10 -237 l0 -247 30 0 30 0 0 141 c0 91 4 138
10 134 6 -4 10 -65 10 -151 l0 -144 -50 0 -50 0 0 280 c0 223 3 280 13 280 7
0 85 -121 172 -270z"/>
<path d="M1687 2417 c-11 -29 -9 -53 4 -40 6 6 9 21 7 34 -3 21 -4 22 -11 6z"/>
</g>
</svg>
